<?xml version="1.0" encoding="utf-8"?>
<!-- Generator: Adobe Illustrator 24.0.1, SVG Export Plug-In . SVG Version: 6.00 Build 0)  -->
<svg version="1.1" id="Calque_1" xmlns="http://www.w3.org/2000/svg" xmlns:xlink="http://www.w3.org/1999/xlink" x="0px" y="0px"
	 viewBox="0 0 49.1 45.4" style="enable-background:new 0 0 49.1 45.4;" xml:space="preserve">
<style type="text/css">
	.st0{fill:#FFFFFF;}
</style>
<title>fond2Plan de travail 65</title>
<g id="Calque_2_1_">
	<path class="st0" d="M24.7,4C14,3.9,5.3,12.5,5.2,23.1c0,0,0,0,0,0c0,8.3,5.4,15.6,13.3,18.1c1,0.2,1.3-0.4,1.3-0.9s0-1.7,0-3.2
		c-5.4,1.2-6.6-2.6-6.6-2.6c-0.4-1.2-1.1-2.1-2.2-2.8c-1.8-1.2,0.1-1.2,0.1-1.2c1.3,0.2,2.4,0.9,3,2c1.7,2.9,4.5,2.1,5.7,1.6
		c0.1-1,0.5-1.9,1.2-2.6c-4.3-0.5-8.9-2.1-8.9-9.4c0-1.9,0.7-3.7,2-5.1c-0.6-1.6-0.6-3.4,0.1-5c0,0,1.6-0.5,5.3,2
		c3.2-0.9,6.5-0.9,9.7,0c3.7-2.5,5.3-2,5.3-2c0.7,1.6,0.7,3.4,0.2,5c1.3,1.4,2,3.2,2,5.1c0,7.3-4.5,9-8.9,9.4
		c0.9,0.9,1.4,2.2,1.3,3.5c0,2.6,0,4.6,0,5.2s0.3,1.1,1.3,0.9c7.9-2.5,13.3-9.8,13.3-18.1C44,12.5,35.3,3.9,24.7,4
		C24.7,4,24.7,4,24.7,4z"/>
</g>
</svg>
